<svg width="138" height="92" viewBox="0 0 138 92" fill="none" xmlns="http://www.w3.org/2000/svg">
<path d="M132.099 0.518066H5.90112C2.97588 0.518066 0.604507 2.88945 0.604507 5.8147V86.1853C0.604507 89.1105 2.97588 91.4819 5.90112 91.4819H132.099C135.024 91.4819 137.396 89.1105 137.396 86.1853V5.8147C137.396 2.88945 135.024 0.518066 132.099 0.518066Z" fill="url(#paint0_linear)" stroke="black" stroke-linecap="round"/>
<path d="M132.099 2.47552H5.78598C4.0054 2.47552 2.56195 3.91894 2.56195 5.69952V86.3004C2.56195 88.081 4.0054 89.5245 5.78598 89.5245H132.099C133.879 89.5245 135.323 88.081 135.323 86.3004V5.69952C135.323 3.91894 133.879 2.47552 132.099 2.47552Z" fill="#999A9E" stroke="url(#paint1_linear)" stroke-linecap="round"/>
<path d="M108.379 4.43298H132.099C133.885 4.43298 135.323 5.87093 135.323 7.65704V86.3005C135.323 88.0866 133.885 89.5245 132.099 89.5245H108.264L108.379 4.43298Z" fill="#1E1B22" stroke="url(#paint2_linear)" stroke-linecap="round"/>
<path d="M7.63545 4.44342C5.84934 4.44342 4.4167 5.87609 4.4167 7.66217V86.2872C4.4167 88.0733 5.84934 89.5371 7.63545 89.5372H108.26L108.385 4.44342H7.63545Z" fill="url(#paint3_linear)" stroke="url(#paint4_linear)" stroke-linecap="round"/>
<path fill-rule="evenodd" clip-rule="evenodd" d="M56.9099 9.38416C68.5572 9.38416 94.9342 10.3082 98.7176 13.4221C102.307 16.3762 102.507 35.7065 102.507 47.6119C102.507 59.287 102.432 75.4013 98.9763 78.8566C95.4659 82.3671 69.4292 84.5731 56.9099 84.5731C45.7065 84.5731 17.0168 83.4112 12.9067 79.3011C8.85432 75.2487 9.7009 61.3058 9.7009 47.6119C9.7009 34.0332 9.44001 17.4453 13.1245 13.7608C16.8674 10.018 43.8934 9.38416 56.9099 9.38416Z" fill="url(#paint5_radial)" stroke="black"/>
<path d="M132.099 0.518066H5.90112C2.97588 0.518066 0.604507 2.88945 0.604507 5.8147V86.1853C0.604507 89.1105 2.97588 91.4819 5.90112 91.4819H132.099C135.024 91.4819 137.396 89.1105 137.396 86.1853V5.8147C137.396 2.88945 135.024 0.518066 132.099 0.518066Z" stroke="black" stroke-linecap="round"/>
<path d="M132.653 42.4305C132.653 45.3869 131.478 48.2222 129.388 50.3127C127.297 52.4032 124.462 53.5775 121.506 53.5775C118.549 53.5775 115.714 52.4032 113.623 50.3127C111.533 48.2222 110.358 45.3869 110.358 42.4305C110.358 39.4741 111.533 36.6387 113.623 34.5482C115.714 32.4578 118.549 31.2834 121.506 31.2834C124.462 31.2834 127.297 32.4578 129.388 34.5482C131.478 36.6387 132.653 39.4741 132.653 42.4305V42.4305Z" fill="url(#paint6_linear)" stroke="black" stroke-width="0.40285" stroke-linecap="round"/>
<path d="M127.343 42.4305C127.343 43.9787 126.728 45.4635 125.633 46.5582C124.539 47.653 123.054 48.268 121.506 48.268C119.957 48.268 118.473 47.653 117.378 46.5582C116.283 45.4635 115.668 43.9787 115.668 42.4305C115.668 40.8822 116.283 39.3974 117.378 38.3027C118.473 37.2079 119.957 36.593 121.506 36.593C123.054 36.593 124.539 37.2079 125.633 38.3027C126.728 39.3974 127.343 40.8822 127.343 42.4305V42.4305Z" fill="#1E1B22" stroke="black" stroke-width="0.769268" stroke-linecap="round"/>
<path d="M120.897 51.0214C119.041 50.8899 117.278 50.1611 115.871 48.9438C114.464 47.7266 113.489 46.0865 113.092 44.2689C112.694 42.4512 112.897 40.5539 113.668 38.8607C114.439 37.1676 115.738 35.7697 117.369 34.8762C119.001 33.9827 120.879 33.6417 122.721 33.9041C124.562 34.1666 126.27 35.0184 127.587 36.3322C128.905 37.6459 129.761 39.3509 130.029 41.1921C130.296 43.0332 129.96 44.9115 129.071 46.5459" stroke="#7F7F7F" stroke-width="1.04281" stroke-linecap="round"/>
<path d="M121.136 38.1248L118.464 39.361L121.875 46.7362L124.548 45.5L121.136 38.1248Z" fill="#A8ACAB" stroke="black" stroke-width="0.818932" stroke-linecap="round"/>
<path d="M132.653 17.4443C132.653 20.4007 131.478 23.236 129.388 25.3265C127.297 27.417 124.462 28.5913 121.506 28.5913C118.549 28.5913 115.714 27.417 113.623 25.3265C111.533 23.236 110.358 20.4007 110.358 17.4443C110.358 14.4879 111.533 11.6525 113.623 9.56204C115.714 7.47155 118.549 6.29718 121.506 6.29718C124.462 6.29718 127.297 7.47155 129.388 9.56204C131.478 11.6525 132.653 14.4879 132.653 17.4443V17.4443Z" fill="url(#paint7_linear)" stroke="black" stroke-width="0.40285" stroke-linecap="round"/>
<path d="M127.343 17.4442C127.343 18.9925 126.728 20.4773 125.633 21.572C124.539 22.6668 123.054 23.2817 121.506 23.2817C119.957 23.2817 118.473 22.6668 117.378 21.572C116.283 20.4773 115.668 18.9925 115.668 17.4442C115.668 15.896 116.283 14.4112 117.378 13.3165C118.473 12.2217 119.957 11.6068 121.506 11.6068C123.054 11.6068 124.539 12.2217 125.633 13.3165C126.728 14.4112 127.343 15.896 127.343 17.4442V17.4442Z" fill="#1E1B22" stroke="black" stroke-width="0.769268" stroke-linecap="round"/>
<path d="M118.726 14.1357L117.251 16.6846L124.286 20.7528L125.76 18.2039L118.726 14.1357Z" fill="#A8ACAB" stroke="black" stroke-width="0.818932" stroke-linecap="round"/>
<path d="M121.506 24.6983V27.2314" stroke="#7F7F7F" stroke-width="1.5"/>
<path d="M125.133 23.7264L126.399 25.9202" stroke="#7F7F7F" stroke-width="1.5"/>
<path d="M127.788 21.0713L129.982 22.3378" stroke="#7F7F7F" stroke-width="1.5"/>
<path d="M128.76 17.4442H131.293" stroke="#7F7F7F" stroke-width="1.5"/>
<path d="M127.788 13.8172L129.982 12.5507" stroke="#7F7F7F" stroke-width="1.5"/>
<path d="M125.133 11.162L126.399 8.96826" stroke="#7F7F7F" stroke-width="1.5"/>
<path d="M121.506 10.1902V7.65704" stroke="#7F7F7F" stroke-width="1.5"/>
<path d="M117.879 11.162L116.612 8.96826" stroke="#7F7F7F" stroke-width="1.5"/>
<path d="M115.223 13.8172L113.03 12.5507" stroke="#7F7F7F" stroke-width="1.5"/>
<path d="M114.252 17.4442H111.718" stroke="#7F7F7F" stroke-width="1.5"/>
<path d="M115.223 21.0713L113.03 22.3378" stroke="#7F7F7F" stroke-width="1.5"/>
<path d="M117.879 23.7264L116.612 25.9202" stroke="#7F7F7F" stroke-width="1.5"/>
<path d="M41.851 24.7727H45.7885V35H49.2914V24.7727H53.2289V21.9091H41.851V24.7727ZM58.146 21.9091H54.1317L58.4528 35H63.3107L67.6317 21.9091H63.6175L60.9329 31.1392H60.8306L58.146 21.9091ZM32.8566 43H36.2572C36.2444 40.4304 34.2629 38.7301 31.0924 38.7301C27.9795 38.7301 25.7806 40.4048 25.7998 42.8977C25.7934 44.9432 27.2124 46.081 29.5328 46.5795L30.8367 46.8608C32.2941 47.1804 32.7927 47.5447 32.8055 48.1392C32.7927 48.7848 32.2046 49.2386 31.0669 49.2386C29.7053 49.2386 28.8999 48.5994 28.8424 47.3977H25.4674C25.4802 50.6832 27.7046 52.1534 31.118 52.1534C34.4355 52.1534 36.4234 50.7216 36.4362 48.1392C36.4234 46.1449 35.2345 44.745 32.3453 44.125L31.2714 43.8949C30.0313 43.6328 29.4752 43.2685 29.5072 42.642C29.5136 42.0668 29.993 41.6449 31.0924 41.6449C32.243 41.6449 32.7863 42.1499 32.8566 43ZM37.7881 52H41.3421V46.8864H46.0466V52H49.6006V38.9091H46.0466V44.0227H41.3421V38.9091H37.7881V52ZM63.9699 45.4545C63.9699 41.0824 61.1574 38.7301 57.6034 38.7301C54.0239 38.7301 51.2369 41.0824 51.2369 45.4545C51.2369 49.8011 54.0239 52.179 57.6034 52.179C61.1574 52.179 63.9699 49.8267 63.9699 45.4545ZM60.3137 45.4545C60.3137 47.8068 59.3676 49.0852 57.6034 49.0852C55.8392 49.0852 54.8932 47.8068 54.8932 45.4545C54.8932 43.1023 55.8392 41.8239 57.6034 41.8239C59.3676 41.8239 60.3137 43.1023 60.3137 45.4545ZM68.9381 52H72.3387L74.5631 44.6875H74.6654L76.8898 52H80.2904L84.1512 38.9091H80.1881L78.3983 46.9886H78.2961L76.1739 38.9091H73.0546L70.9324 46.9631H70.8302L69.0404 38.9091H65.0773L68.9381 52ZM47.4904 62.4545C47.4904 58.0824 44.6779 55.7301 41.1239 55.7301C37.5444 55.7301 34.7575 58.0824 34.7575 62.4545C34.7575 66.8011 37.5444 69.179 41.1239 69.179C41.9229 69.179 42.6836 69.0575 43.3867 68.8274L44.3711 69.9716H47.516L45.5281 67.5682C46.7425 66.4304 47.4904 64.7109 47.4904 62.4545ZM39.8711 64.142L41.3349 66.0788C41.2646 66.0852 41.1942 66.0852 41.1239 66.0852C39.3597 66.0852 38.4137 64.8068 38.4137 62.4545C38.4137 60.1023 39.3597 58.8239 41.1239 58.8239C42.8881 58.8239 43.8342 60.1023 43.8342 62.4545C43.8342 63.5092 43.6424 64.3466 43.2781 64.9538L42.6325 64.142H39.8711ZM56.9251 55.9091V64.3977C56.9251 65.3693 56.1325 66.0341 54.8029 66.0341C53.4989 66.0341 52.7063 65.3693 52.7063 64.3977V55.9091H49.1523V64.5511C49.1523 67.5426 51.3512 69.1534 54.8029 69.1534C58.229 69.1534 60.4535 67.5426 60.4535 64.5511V55.9091H56.9251ZM65.6966 55.9091H62.1426V69H65.6966V55.9091ZM67.432 69H78.1195V66.1364H71.9576L78.1451 57.8778V55.9091H67.4576V58.7727H73.6195L67.432 67.0312V69Z" fill="black"/>
<defs>
<linearGradient id="paint0_linear" x1="-0.4712" y1="0.0180806" x2="0.10452" y2="91.9819" gradientUnits="userSpaceOnUse">
<stop stop-color="#999A9E"/>
<stop offset="1"/>
</linearGradient>
<linearGradient id="paint1_linear" x1="2.06195" y1="1.97553" x2="2.06195" y2="90.0245" gradientUnits="userSpaceOnUse">
<stop/>
<stop offset="1" stop-color="#A0A0A0"/>
</linearGradient>
<linearGradient id="paint2_linear" x1="2.06197" y1="1.97553" x2="2.06197" y2="90.0245" gradientUnits="userSpaceOnUse">
<stop/>
<stop offset="1" stop-color="#A0A0A0"/>
</linearGradient>
<linearGradient id="paint3_linear" x1="3.91671" y1="90.0372" x2="108.885" y2="3.94341" gradientUnits="userSpaceOnUse">
<stop stop-color="#1F1D22"/>
<stop offset="0.0892857" stop-color="#DCDCDC"/>
<stop offset="1" stop-color="#808080"/>
</linearGradient>
<linearGradient id="paint4_linear" x1="3.91671" y1="3.94347" x2="3.91671" y2="90.0372" gradientUnits="userSpaceOnUse">
<stop/>
<stop offset="1" stop-color="#A0A0A0"/>
</linearGradient>
<radialGradient id="paint5_radial" cx="0" cy="0" r="1" gradientUnits="userSpaceOnUse" gradientTransform="translate(30.7356 27.0587) rotate(127.749) scale(68.5974 83.7353)">
<stop stop-color="#EAEAEB"/>
<stop offset="1" stop-color="#4A4B4E"/>
</radialGradient>
<linearGradient id="paint6_linear" x1="113.543" y1="34.4855" x2="129.007" y2="50.7209" gradientUnits="userSpaceOnUse">
<stop stop-color="#7F8488"/>
<stop offset="1" stop-color="#ABAEB1"/>
</linearGradient>
<linearGradient id="paint7_linear" x1="113.543" y1="9.49932" x2="129.007" y2="25.7347" gradientUnits="userSpaceOnUse">
<stop stop-color="#7F8488"/>
<stop offset="1" stop-color="#ABAEB1"/>
</linearGradient>
</defs>
</svg>
