<svg width="466" height="328" viewBox="0 0 466 328" fill="none" xmlns="http://www.w3.org/2000/svg">
<path d="M54.5 14C218 59 268.5 42.5 420 14C469.48 128.677 459.88 196.759 360 286C256.585 323.608 199.099 322.331 97.5 280C14.5463 208.63 -17.5 96.5 54.5 14Z" fill="#750000"/>
<path fill-rule="evenodd" clip-rule="evenodd" d="M247.602 139.481C245.643 136.902 244.981 134.34 245.279 132.104C245.577 129.87 246.828 128.013 248.597 126.844C252.156 124.492 257.705 124.962 261.888 130.364C266.954 136.319 271.687 141.283 276.175 145.99C278.077 147.986 279.935 149.935 281.756 151.893C287.868 158.468 293.53 165.124 298.926 173.918C301.538 178.175 305.832 181.211 310.92 183.324C316.006 185.436 321.853 186.611 327.516 187.167C333.176 187.723 338.634 187.659 342.931 187.303C345.08 187.125 346.933 186.875 348.372 186.595C349.835 186.311 350.807 186.007 351.246 185.748L351.318 185.706L351.401 185.689C357.587 184.433 362.62 183.835 366.61 184.058C370.603 184.282 373.613 185.331 375.68 187.43C377.746 189.528 378.79 192.593 379.028 196.674C379.267 200.755 378.703 205.914 377.491 212.273L377.488 212.288L377.484 212.303C372.043 233.632 365.541 247.968 357.311 260.529C350.433 271.025 342.35 280.278 332.706 291.317C330.823 293.471 328.882 295.693 326.878 298.006L326.771 298.13L233.111 319.487L233 319L232.89 319.488L139.23 298.452L139.122 298.327C137.118 296.014 135.177 293.792 133.295 291.638C123.65 280.598 115.567 271.346 108.689 260.85C100.459 248.289 93.9566 233.953 88.5155 212.624L88.5117 212.609L88.5088 212.594C87.2967 206.235 86.7333 201.076 86.9717 196.995C87.21 192.914 88.2542 189.849 90.3196 187.751C92.3867 185.652 95.3973 184.603 99.3901 184.379C103.38 184.156 108.413 184.754 114.599 186.01L114.682 186.027L114.754 186.069C115.193 186.328 116.165 186.632 117.628 186.916C119.067 187.196 120.92 187.446 123.069 187.624C127.366 187.98 132.824 188.044 138.484 187.488C144.147 186.932 149.994 185.757 155.08 183.645C160.168 181.532 164.461 178.496 167.074 174.238C172.47 165.445 178.132 158.789 184.244 152.214C186.065 150.256 187.923 148.307 189.825 146.311C194.313 141.604 199.046 136.64 204.112 130.685C208.295 125.283 213.844 124.813 217.403 127.165C219.172 128.333 220.423 130.191 220.721 132.424C221.019 134.661 220.357 137.223 218.398 139.802L218.377 139.83L218.352 139.855C209.914 148.226 206.723 160.175 209.069 170C210.241 174.907 212.791 179.275 216.748 182.418C220.704 185.559 226.097 187.5 233 187.5C239.902 187.5 245.294 185.539 249.25 182.369C253.208 179.197 255.758 174.788 256.93 169.841C259.278 159.933 256.085 147.904 247.648 139.534L247.623 139.509L247.602 139.481ZM233 188.5C225.903 188.5 220.282 186.501 216.126 183.201C211.973 179.902 209.314 175.329 208.097 170.232C205.668 160.062 208.968 147.774 217.623 139.17C219.435 136.771 219.986 134.478 219.73 132.557C219.472 130.625 218.393 129.017 216.852 127.999C213.793 125.978 208.809 126.244 204.896 131.306L204.888 131.315L204.881 131.324C199.793 137.305 195.026 142.306 190.529 147.023C190.528 147.024 190.527 147.025 190.526 147.026C188.629 149.015 186.78 150.954 184.976 152.895C178.886 159.446 173.273 166.047 167.926 174.761C165.167 179.258 160.67 182.406 155.464 184.568C150.257 186.731 144.306 187.921 138.582 188.483C132.856 189.046 127.338 188.981 122.986 188.621C120.81 188.441 118.92 188.186 117.437 187.898C116.037 187.626 114.942 187.313 114.323 186.974C108.199 185.735 103.292 185.163 99.4459 185.378C95.5865 185.594 92.8582 186.598 91.0321 188.453C89.2044 190.309 88.201 193.097 87.97 197.054C87.739 201.008 88.2833 206.066 89.4883 212.391C94.9054 233.622 101.366 247.849 109.525 260.302C116.362 270.735 124.392 279.927 134.036 290.966L134.042 290.973C134.043 290.974 134.044 290.975 134.045 290.976C135.893 293.092 137.8 295.275 139.77 297.548L232.999 318.487L326.229 297.228C328.202 294.951 330.113 292.764 331.964 290.645C341.608 279.606 349.638 270.414 356.475 259.981C364.634 247.528 371.095 233.301 376.512 212.07C377.717 205.745 378.261 200.687 378.03 196.733C377.799 192.776 376.796 189.988 374.968 188.132C373.142 186.278 370.414 185.273 366.554 185.057C362.708 184.842 357.801 185.414 351.677 186.653C351.058 186.992 349.963 187.305 348.563 187.577C347.08 187.865 345.19 188.12 343.014 188.3C338.662 188.66 333.144 188.725 327.418 188.163C321.694 187.6 315.743 186.41 310.536 184.247C305.33 182.085 300.833 178.937 298.074 174.441C292.727 165.726 287.114 159.125 281.024 152.574C279.219 150.633 277.369 148.693 275.472 146.703L275.471 146.702C270.974 141.985 266.206 136.984 261.119 131.003L261.112 130.994L261.104 130.985C257.191 125.923 252.207 125.657 249.148 127.678C247.607 128.696 246.528 130.304 246.27 132.236C246.014 134.157 246.565 136.45 248.377 138.849C257.033 147.455 260.332 159.822 257.903 170.071C256.687 175.207 254.029 179.82 249.875 183.149C245.72 186.48 240.098 188.5 233 188.5Z" fill="#420000"/>
<path d="M233 188.5C225.903 188.5 220.282 186.501 216.126 183.201C211.973 179.902 209.314 175.329 208.097 170.232C205.668 160.062 208.968 147.774 217.623 139.17C219.435 136.771 219.986 134.478 219.73 132.557C219.472 130.625 218.393 129.017 216.852 127.999C213.793 125.978 208.809 126.244 204.896 131.306L204.888 131.315L204.881 131.324C199.793 137.305 195.026 142.306 190.529 147.023L190.526 147.026C188.629 149.015 186.78 150.954 184.976 152.895C178.886 159.446 173.273 166.047 167.926 174.761C165.167 179.258 160.67 182.406 155.464 184.568C150.257 186.731 144.306 187.921 138.582 188.483C132.856 189.046 127.338 188.981 122.986 188.621C120.81 188.441 118.92 188.186 117.437 187.898C116.037 187.626 114.942 187.313 114.323 186.974C108.199 185.735 103.292 185.163 99.4459 185.378C95.5865 185.594 92.8582 186.598 91.0321 188.453C89.2044 190.309 88.201 193.097 87.97 197.054C87.739 201.008 88.2833 206.066 89.4883 212.391C94.9054 233.622 101.366 247.849 109.525 260.302C116.362 270.735 124.392 279.927 134.036 290.966L134.042 290.973L134.045 290.976C135.893 293.092 137.8 295.275 139.77 297.548L232.999 318.487L326.229 297.228C328.202 294.951 330.113 292.764 331.964 290.645C341.608 279.606 349.638 270.414 356.475 259.981C364.634 247.528 371.095 233.301 376.512 212.07C377.717 205.745 378.261 200.687 378.03 196.733C377.799 192.776 376.796 189.988 374.968 188.132C373.142 186.278 370.414 185.273 366.554 185.057C362.708 184.842 357.801 185.414 351.677 186.653C351.058 186.992 349.963 187.305 348.563 187.577C347.08 187.865 345.19 188.12 343.014 188.3C338.662 188.66 333.144 188.725 327.418 188.163C321.694 187.6 315.743 186.41 310.536 184.247C305.33 182.085 300.833 178.937 298.074 174.441C292.727 165.726 287.114 159.125 281.024 152.574C279.219 150.633 277.369 148.693 275.472 146.703L275.471 146.702C270.974 141.985 266.206 136.984 261.119 131.003L261.112 130.994L261.104 130.985C257.191 125.923 252.207 125.657 249.148 127.678C247.607 128.696 246.528 130.304 246.27 132.236C246.014 134.157 246.565 136.45 248.377 138.849C257.033 147.455 260.332 159.822 257.903 170.071C256.687 175.207 254.029 179.82 249.875 183.149C245.72 186.48 240.098 188.5 233 188.5Z" fill="#420000"/>
<path d="M112 43C112 35.268 118.268 29 126 29H142C149.732 29 156 35.268 156 43V90C156 97.732 149.732 104 142 104H126C118.268 104 112 97.732 112 90V43Z" fill="white"/>
<path d="M55 32C55 24.268 61.268 18 69 18H92C99.732 18 106 24.268 106 32V90C106 97.732 99.732 104 92 104H69C61.268 104 55 97.732 55 90V32Z" fill="white"/>
<path d="M362 32C362 24.268 368.268 18 376 18H399C406.732 18 413 24.268 413 32V90C413 97.732 406.732 104 399 104H376C368.268 104 362 97.732 362 90V32Z" fill="white"/>
<path d="M312 43C312 35.268 318.268 29 326 29H342C349.732 29 356 35.268 356 43V90C356 97.732 349.732 104 342 104H326C318.268 104 312 97.732 312 90V43Z" fill="white"/>
<path d="M262 43C262 35.268 268.268 29 276 29H292C299.732 29 306 35.268 306 43V90C306 97.732 299.732 104 292 104H276C268.268 104 262 97.732 262 90V43Z" fill="white"/>
<path d="M212 47C212 39.268 218.268 33 226 33H242C249.732 33 256 39.268 256 47V90C256 97.732 249.732 104 242 104H226C218.268 104 212 97.732 212 90V47Z" fill="white"/>
<path d="M162 43C162 35.268 168.268 29 176 29H192C199.732 29 206 35.268 206 43V90C206 97.732 199.732 104 192 104H176C168.268 104 162 97.732 162 90V43Z" fill="white"/>
<path d="M111 257C111 249.268 117.268 243 125 243H141C148.732 243 155 249.268 155 257V286C155 293.732 148.732 300 141 300H125C117.268 300 111 293.732 111 286V257Z" fill="white"/>
<path d="M72.0118 261.635C67.1463 253.401 73.0818 243 82.6456 243H91C98.732 243 105 249.392 105 257.124C105 267.291 94.504 274.26 85.2378 270.075L77.5619 266.609C75.2439 265.562 73.3056 263.825 72.0118 261.635Z" fill="white"/>
<path d="M361 257C361 249.268 367.268 243 375 243H383.091C393.315 243 400.091 253.604 395.795 262.882L395.194 264.182C393.483 267.876 390.25 270.643 386.335 271.761L378.846 273.901C369.903 276.456 361 269.741 361 260.44V257Z" fill="white"/>
<path d="M311 257C311 249.268 317.268 243 325 243H341C348.732 243 355 249.268 355 257V287C355 294.732 348.732 301 341 301H325C317.268 301 311 294.732 311 287V257Z" fill="white"/>
<path d="M261 257C261 249.268 267.268 243 275 243H291C298.732 243 305 249.268 305 257V304C305 311.732 298.732 318 291 318H275C267.268 318 261 311.732 261 304V257Z" fill="white"/>
<path d="M211 257C211 249.268 217.268 243 225 243H241C248.732 243 255 249.268 255 257V300C255 307.732 248.732 314 241 314H225C217.268 314 211 307.732 211 300V257Z" fill="white"/>
<path d="M161 257C161 249.268 167.268 243 175 243H191C198.732 243 205 249.268 205 257V304C205 311.732 198.732 318 191 318H175C167.268 318 161 311.732 161 304V257Z" fill="white"/>
<path fill-rule="evenodd" clip-rule="evenodd" d="M74.7677 1.01967C41.6353 -0.678271 19.6536 25.2608 9.08854 55.351C-1.71486 86.12 -3.09493 126.387 7.00989 166.159C17.1646 206.127 39.1706 246.596 76.3111 277.095C113.595 307.712 165.185 327.5 233 327.5V327.556C300.815 327.556 352.405 307.768 389.689 277.151C426.829 246.651 448.835 206.183 458.99 166.215C469.095 126.443 467.715 86.1758 456.911 55.4068C446.346 25.3166 424.365 -0.62247 391.232 1.07547L389.463 1.16614L387.765 1.66613L387.764 1.66644L387.711 1.68195L387.517 1.73847C387.342 1.78953 387.075 1.86707 386.721 1.96932C386.012 2.17384 384.953 2.47714 383.578 2.86512C380.826 3.64121 376.809 4.7554 371.794 6.09501C361.755 8.77603 347.749 12.3507 331.891 15.9224C299.825 23.1451 261.465 30.0558 233 30.0558V30C204.535 30 166.175 23.0893 134.109 15.8666C118.251 12.2949 104.245 8.72023 94.2064 6.03921C89.1906 4.6996 85.174 3.58541 82.4224 2.80932C81.0468 2.42134 79.9879 2.11804 79.279 1.91352C78.9246 1.81127 78.6577 1.73373 78.4826 1.68266L78.2892 1.62615L76.537 1.11034L74.7677 1.01967ZM233 60C200.965 60 159.825 52.4107 127.516 45.1334C111.186 41.4551 96.7864 37.7798 86.4655 35.0233C81.3016 33.6442 77.1502 32.4927 74.2788 31.6829C73.2503 31.3928 72.3856 31.1464 71.6972 30.949C58.8804 31.0843 45.8544 41.195 37.3945 65.2895C28.8349 89.668 27.2069 123.824 36.0861 158.772C44.9154 193.523 63.8854 228.072 95.3499 253.91C126.671 279.631 171.315 297.5 233 297.5V297.556C294.685 297.556 339.329 279.687 370.65 253.966C402.115 228.128 421.085 193.579 429.914 158.827C438.793 123.879 437.165 89.7238 428.606 65.3453C420.146 41.2508 407.12 31.1401 394.303 31.0048C393.614 31.2022 392.75 31.4486 391.721 31.7387C388.85 32.5485 384.698 33.7 379.535 35.0791C369.214 37.8356 354.814 41.5109 338.484 45.1892C306.175 52.4665 265.035 60.0558 233 60.0558V60Z" fill="#C80000"/>
</svg>
